<svg xmlns="http://www.w3.org/2000/svg" viewBox="0 0 800 600" role="img" aria-label="Ilustración de un escritorio de abogado con biblioteca, laptop y lámpara">
<rect width="800" height="600" fill="#ECE8DF"/>
<rect x="28" y="64" width="408" height="400" rx="6" fill="#E2DCCF"/>
<rect x="40" y="144" width="28" height="68" rx="2" fill="#C9A58F"/><rect x="44" y="154" width="20" height="3" fill="#fff" opacity=".45"/><rect x="71" y="122" width="20" height="90" rx="2" fill="#7F9784"/><rect x="75" y="132" width="12" height="3" fill="#fff" opacity=".45"/><rect x="94" y="132" width="19" height="80" rx="2" fill="#8A7B66"/><rect x="98" y="142" width="11" height="3" fill="#fff" opacity=".45"/><rect x="142" y="135" width="31" height="77" rx="2" fill="#7F9784"/><rect x="146" y="145" width="23" height="3" fill="#fff" opacity=".45"/><rect x="176" y="147" width="31" height="65" rx="2" fill="#7F9784"/><rect x="180" y="157" width="23" height="3" fill="#fff" opacity=".45"/><rect x="210" y="130" width="19" height="82" rx="2" fill="#C9A58F"/><rect x="214" y="140" width="11" height="3" fill="#fff" opacity=".45"/><rect x="258" y="147" width="25" height="65" rx="2" fill="#B5593C"/><rect x="262" y="157" width="17" height="3" fill="#fff" opacity=".45"/><rect x="286" y="131" width="22" height="81" rx="2" fill="#7F9784"/><rect x="290" y="141" width="14" height="3" fill="#fff" opacity=".45"/><rect x="311" y="145" width="23" height="67" rx="2" fill="#8A7B66"/><rect x="315" y="155" width="15" height="3" fill="#fff" opacity=".45"/><rect x="337" y="130" width="20" height="82" rx="2" fill="#2E4A5C"/><rect x="341" y="140" width="12" height="3" fill="#fff" opacity=".45"/><rect x="360" y="127" width="33" height="85" rx="2" fill="#C9A58F"/><rect x="364" y="137" width="25" height="3" fill="#fff" opacity=".45"/><rect x="396" y="130" width="32" height="82" rx="2" fill="#4F6C80"/><rect x="400" y="140" width="24" height="3" fill="#fff" opacity=".45"/><rect x="28" y="212" width="408" height="10" rx="3" fill="#B79F78"/><rect x="40" y="233" width="25" height="89" rx="2" fill="#B5593C"/><rect x="44" y="243" width="17" height="3" fill="#fff" opacity=".45"/><rect x="68" y="256" width="25" height="66" rx="2" fill="#3A5A6E"/><rect x="72" y="266" width="17" height="3" fill="#fff" opacity=".45"/><rect x="96" y="235" width="28" height="87" rx="2" fill="#4F6C80"/><rect x="100" y="245" width="20" height="3" fill="#fff" opacity=".45"/><rect x="127" y="255" width="20" height="67" rx="2" fill="#C9A58F"/><rect x="131" y="265" width="12" height="3" fill="#fff" opacity=".45"/><rect x="150" y="254" width="28" height="68" rx="2" fill="#4F6C80"/><rect x="154" y="264" width="20" height="3" fill="#fff" opacity=".45"/><rect x="181" y="234" width="20" height="88" rx="2" fill="#A9B6A8"/><rect x="185" y="244" width="12" height="3" fill="#fff" opacity=".45"/><rect x="204" y="239" width="29" height="83" rx="2" fill="#4F6C80"/><rect x="208" y="249" width="21" height="3" fill="#fff" opacity=".45"/><rect x="236" y="256" width="32" height="66" rx="2" fill="#7F9784"/><rect x="240" y="266" width="24" height="3" fill="#fff" opacity=".45"/><rect x="271" y="236" width="33" height="86" rx="2" fill="#7F9784"/><rect x="275" y="246" width="25" height="3" fill="#fff" opacity=".45"/><rect x="333" y="238" width="27" height="84" rx="2" fill="#4F6C80"/><rect x="337" y="248" width="19" height="3" fill="#fff" opacity=".45"/><rect x="363" y="230" width="30" height="92" rx="2" fill="#A9B6A8"/><rect x="367" y="240" width="22" height="3" fill="#fff" opacity=".45"/><rect x="28" y="322" width="408" height="10" rx="3" fill="#B79F78"/><rect x="40" y="357" width="32" height="75" rx="2" fill="#B5593C"/><rect x="44" y="367" width="24" height="3" fill="#fff" opacity=".45"/><rect x="75" y="367" width="33" height="65" rx="2" fill="#8A7B66"/><rect x="79" y="377" width="25" height="3" fill="#fff" opacity=".45"/><rect x="111" y="345" width="22" height="87" rx="2" fill="#8A7B66"/><rect x="115" y="355" width="14" height="3" fill="#fff" opacity=".45"/><rect x="136" y="366" width="33" height="66" rx="2" fill="#B5593C"/><rect x="140" y="376" width="25" height="3" fill="#fff" opacity=".45"/><rect x="172" y="340" width="26" height="92" rx="2" fill="#B5593C"/><rect x="176" y="350" width="18" height="3" fill="#fff" opacity=".45"/><rect x="201" y="346" width="26" height="86" rx="2" fill="#C9A58F"/><rect x="205" y="356" width="18" height="3" fill="#fff" opacity=".45"/><rect x="230" y="361" width="30" height="71" rx="2" fill="#B5593C"/><rect x="234" y="371" width="22" height="3" fill="#fff" opacity=".45"/><rect x="289" y="361" width="22" height="71" rx="2" fill="#8A7B66"/><rect x="293" y="371" width="14" height="3" fill="#fff" opacity=".45"/><rect x="340" y="360" width="23" height="72" rx="2" fill="#3A5A6E"/><rect x="344" y="370" width="15" height="3" fill="#fff" opacity=".45"/><rect x="392" y="351" width="31" height="81" rx="2" fill="#A9B6A8"/><rect x="396" y="361" width="23" height="3" fill="#fff" opacity=".45"/><rect x="28" y="432" width="408" height="10" rx="3" fill="#B79F78"/>
<!-- diploma / balanza -->
<rect x="500" y="90" width="150" height="200" rx="4" fill="#FDFCFA" stroke="#DCD6CA" stroke-width="3"/>
<g transform="translate(575 170)" stroke="#2E4A5C" stroke-width="5" fill="none" stroke-linecap="round" stroke-linejoin="round">
  <line x1="0" y1="-48" x2="0" y2="48"/><line x1="-46" y1="-30" x2="46" y2="-30"/>
  <path d="M-46 -30 l-20 50 h40 z"/><path d="M46 -30 l-20 50 h40 z"/>
  <line x1="-22" y1="48" x2="22" y2="48"/>
</g>
<rect x="520" y="248" width="110" height="6" rx="3" fill="#DCD6CA"/>
<rect x="540" y="260" width="70" height="6" rx="3" fill="#DCD6CA"/>
<!-- escritorio -->
<rect x="0" y="470" width="800" height="130" fill="#D7CFBE"/>
<rect x="60" y="440" width="680" height="30" rx="8" fill="#CDB894"/>
<rect x="90" y="470" width="14" height="130" fill="#B79F78"/>
<rect x="696" y="470" width="14" height="130" fill="#B79F78"/>
<!-- laptop -->
<path d="M330 440 l22 -120 h200 l22 120z" fill="#1F2A33" opacity=".92"/>
<path d="M356 432 l16 -96 h166 l16 96z" fill="#2E4A5C"/>
<rect x="400" y="362" width="90" height="8" rx="4" fill="#fff" opacity=".7"/>
<rect x="400" y="380" width="60" height="8" rx="4" fill="#fff" opacity=".4"/>
<rect x="310" y="438" width="280" height="8" rx="4" fill="#9AA6AD"/>
<!-- lámpara -->
<path d="M150 440 v-90 l60 -60" stroke="#1F2A33" stroke-width="7" fill="none" stroke-linecap="round" stroke-linejoin="round"/>
<ellipse cx="150" cy="440" rx="40" ry="8" fill="#1F2A33"/>
<path d="M190 276 l66 14 -16 38z" fill="#B5593C"/>
<polygon points="215,320 262,300 300,440 190,440" fill="#fff" opacity=".13"/>
<!-- taza y planta -->
<rect x="640" y="400" width="34" height="40" rx="6" fill="#FDFCFA"/>
<path d="M674 410 q18 0 18 14 q0 12 -18 12" stroke="#FDFCFA" stroke-width="5" fill="none"/>
<path d="M720 440 h60 l-8 -50 h-44z" fill="#C97F63" transform="translate(-60 0)"/>
<g fill="#7F9784"><ellipse cx="690" cy="340" rx="12" ry="40" transform="rotate(-14 690 380)"/><ellipse cx="718" cy="346" rx="11" ry="34" transform="rotate(22 710 384)" fill="#6C8573"/></g>
</svg>