<svg xmlns="http://www.w3.org/2000/svg" viewBox="0 0 800 600" role="img" aria-label="Ilustración de un consultorio odontológico luminoso con sillón, ventana y planta">
<defs>
  <linearGradient id="sky" x1="0" y1="0" x2="0" y2="1"><stop offset="0" stop-color="#DDE8EC"/><stop offset="1" stop-color="#F4F2EC"/></linearGradient>
  <linearGradient id="beam" x1="0" y1="0" x2="1" y2="1"><stop offset="0" stop-color="#fff" stop-opacity=".6"/><stop offset="1" stop-color="#fff" stop-opacity="0"/></linearGradient>
  <linearGradient id="wall" x1="0" y1="0" x2="0" y2="1"><stop offset="0" stop-color="#ECE8DF"/><stop offset="1" stop-color="#E4DFD3"/></linearGradient>
  <linearGradient id="floor" x1="0" y1="0" x2="0" y2="1"><stop offset="0" stop-color="#DDD5C5"/><stop offset="1" stop-color="#CFC6B4"/></linearGradient>
  <radialGradient id="glow" cx=".5" cy=".5" r=".5"><stop offset="0" stop-color="#fff" stop-opacity=".75"/><stop offset="1" stop-color="#fff" stop-opacity="0"/></radialGradient>
</defs>
<rect width="800" height="600" fill="url(#wall)"/>
<rect y="428" width="800" height="172" fill="url(#floor)"/>
<rect y="422" width="800" height="10" fill="#C7BEAB"/>
<!-- ventana -->
<rect x="64" y="64" width="262" height="312" rx="8" fill="#FDFCFA"/>
<rect x="78" y="78" width="234" height="284" rx="4" fill="url(#sky)"/>
<circle cx="250" cy="150" r="34" fill="#FBEFD3" opacity=".9"/>
<path d="M78 300 Q140 250 200 290 T312 270 V362 H78Z" fill="#7F9784" opacity=".55"/>
<path d="M78 330 Q150 295 230 325 T312 315 V362 H78Z" fill="#7F9784" opacity=".8"/>
<rect x="191" y="78" width="6" height="284" fill="#FDFCFA"/>
<rect x="78" y="216" width="234" height="6" fill="#FDFCFA"/>
<rect x="56" y="372" width="278" height="12" rx="4" fill="#F3EFE6"/>
<!-- luz -->
<polygon points="78,384 312,384 560,600 150,600" fill="url(#beam)" opacity=".55"/>
<ellipse cx="190" cy="228" rx="190" ry="210" fill="url(#glow)" opacity=".25"/>
<!-- cuadros -->
<rect x="388" y="92" width="96" height="124" rx="4" fill="#FDFCFA" stroke="#DCD6CA" stroke-width="3"/>
<circle cx="436" cy="140" r="22" fill="#DDE5DD"/>
<path d="M404 196 Q436 150 468 196Z" fill="#2E4A5C" opacity=".85"/>
<rect x="504" y="112" width="74" height="96" rx="4" fill="#FDFCFA" stroke="#DCD6CA" stroke-width="3"/>
<circle cx="541" cy="150" r="16" fill="#E9C9BC"/>
<rect x="522" y="176" width="38" height="6" rx="3" fill="#DCD6CA"/>
<rect x="522" y="188" width="24" height="6" rx="3" fill="#DCD6CA"/>
<!-- repisa -->
<rect x="610" y="164" width="150" height="10" rx="3" fill="#CDB894"/>
<rect x="622" y="126" width="12" height="38" rx="2" fill="#2E4A5C"/>
<rect x="636" y="134" width="10" height="30" rx="2" fill="#B5593C"/>
<rect x="648" y="120" width="12" height="44" rx="2" fill="#7F9784"/>
<rect x="700" y="132" width="34" height="32" rx="6" fill="#FDFCFA"/>
<path d="M717 132 C 705 112 690 108 688 96 M717 132 C 726 114 742 112 748 100" stroke="#7F9784" stroke-width="5" fill="none" stroke-linecap="round"/>
<!-- lámpara -->
<path d="M706 0 V54 L640 120" stroke="#9AA6AD" stroke-width="6" fill="none" stroke-linecap="round" stroke-linejoin="round"/>
<circle cx="706" cy="54" r="7" fill="#9AA6AD"/><circle cx="640" cy="120" r="7" fill="#9AA6AD"/>
<ellipse cx="612" cy="152" rx="44" ry="16" fill="#FDFCFA" stroke="#B8C0C4" stroke-width="3"/>
<polygon points="580,164 644,164 690,330 540,330" fill="#fff" opacity=".16"/>
<!-- sillón -->
<ellipse cx="560" cy="548" rx="150" ry="20" fill="#1F2A33" opacity=".13"/>
<rect x="548" y="478" width="26" height="62" rx="6" fill="#8996A0"/>
<rect x="500" y="530" width="124" height="18" rx="9" fill="#6F7E88"/>
<path d="M450 470 q0-34 34-34 h138 q34 0 34 34 v14 h-206z" fill="#2E4A5C"/>
<rect x="468" y="262" width="82" height="196" rx="38" fill="#3A5A6E" transform="rotate(-17 506 450)"/>
<rect x="420" y="226" width="70" height="50" rx="24" fill="#2E4A5C" transform="rotate(-17 455 251)"/>
<rect x="628" y="446" width="124" height="36" rx="18" fill="#3A5A6E" transform="rotate(7 628 464)"/>
<rect x="630" y="396" width="14" height="76" rx="7" fill="#8996A0" transform="rotate(-5 637 430)"/>
<!-- planta -->
<ellipse cx="100" cy="548" rx="58" ry="12" fill="#1F2A33" opacity=".12"/>
<path d="M58 480 h84 l-12 66 h-60z" fill="#C97F63"/>
<rect x="54" y="470" width="92" height="16" rx="6" fill="#B96E53"/>
<g fill="#7F9784">
  <ellipse cx="100" cy="408" rx="14" ry="58" transform="rotate(-6 100 466)"/>
  <ellipse cx="70" cy="420" rx="13" ry="50" transform="rotate(-34 80 466)" fill="#6C8573"/>
  <ellipse cx="132" cy="420" rx="13" ry="50" transform="rotate(32 120 466)" fill="#6C8573"/>
  <ellipse cx="50" cy="446" rx="11" ry="36" transform="rotate(-62 70 470)"/>
  <ellipse cx="152" cy="446" rx="11" ry="36" transform="rotate(62 130 470)"/>
</g>
</svg>