<svg xmlns="http://www.w3.org/2000/svg" viewBox="0 0 800 600" role="img" aria-label="Edificio de pocos pisos con entrada principal"><defs><linearGradient id="s26" x1="0" y1="0" x2="0" y2="1"><stop offset="0" stop-color="#E4E9EC"/><stop offset="1" stop-color="#F6F2E8"/></linearGradient></defs><rect width="800" height="600" fill="url(#s26)"/><circle cx="611" cy="123" r="46" fill="#FBF0D6" opacity=".85"/><rect x="-26" y="336" width="97" height="134" fill="#D9D1C0" opacity=".22"/><rect x="141" y="228" width="119" height="242" fill="#D9D1C0" opacity=".22"/><rect x="315" y="222" width="116" height="248" fill="#D9D1C0" opacity=".22"/><rect x="510" y="241" width="110" height="229" fill="#D9D1C0" opacity=".22"/><rect x="672" y="246" width="85" height="224" fill="#D9D1C0" opacity=".22"/><rect y="470" width="800" height="130" fill="#CDC6B4"/><rect y="470" width="800" height="10" fill="#000" opacity=".06"/><rect x="170" y="250" width="460" height="220" rx="4" fill="#D9D1C0"/><rect x="158" y="238" width="484" height="14" fill="#2E4A5C"/><rect x="178.0" y="264.0" width="56.6" height="58.7" rx="3" fill="#BCCDD4"/><rect x="242.6" y="264.0" width="56.6" height="58.7" rx="3" fill="#F5DDA8"/><rect x="307.1" y="264.0" width="56.6" height="58.7" rx="3" fill="#F5DDA8"/><rect x="371.7" y="264.0" width="56.6" height="58.7" rx="3" fill="#BCCDD4"/><rect x="436.3" y="264.0" width="56.6" height="58.7" rx="3" fill="#F5DDA8"/><rect x="500.9" y="264.0" width="56.6" height="58.7" rx="3" fill="#BCCDD4"/><rect x="565.4" y="264.0" width="56.6" height="58.7" rx="3" fill="#BCCDD4"/><rect x="178.0" y="330.7" width="56.6" height="58.7" rx="3" fill="#F5DDA8"/><rect x="242.6" y="330.7" width="56.6" height="58.7" rx="3" fill="#BCCDD4"/><rect x="307.1" y="330.7" width="56.6" height="58.7" rx="3" fill="#BCCDD4"/><rect x="371.7" y="330.7" width="56.6" height="58.7" rx="3" fill="#BCCDD4"/><rect x="436.3" y="330.7" width="56.6" height="58.7" rx="3" fill="#BCCDD4"/><rect x="500.9" y="330.7" width="56.6" height="58.7" rx="3" fill="#BCCDD4"/><rect x="565.4" y="330.7" width="56.6" height="58.7" rx="3" fill="#BCCDD4"/><rect x="178.0" y="397.3" width="56.6" height="58.7" rx="3" fill="#BCCDD4"/><rect x="242.6" y="397.3" width="56.6" height="58.7" rx="3" fill="#BCCDD4"/><rect x="307.1" y="397.3" width="56.6" height="58.7" rx="3" fill="#BCCDD4"/><rect x="371.7" y="397.3" width="56.6" height="58.7" rx="3" fill="#F5DDA8"/><rect x="436.3" y="397.3" width="56.6" height="58.7" rx="3" fill="#BCCDD4"/><rect x="500.9" y="397.3" width="56.6" height="58.7" rx="3" fill="#F5DDA8"/><rect x="565.4" y="397.3" width="56.6" height="58.7" rx="3" fill="#F5DDA8"/><rect x="170" y="398" width="460" height="8" fill="#2E4A5C" opacity=".5"/><rect x="364.0" y="410" width="72" height="60" rx="4" fill="#2E4A5C"/><rect x="79" y="445" width="6" height="31" fill="#7A6A52"/><circle cx="82" cy="432" r="34" fill="#7F9784"/><circle cx="99" cy="442" r="24" fill="#7F9784" opacity=".85"/><rect x="706" y="440" width="6" height="36" fill="#7A6A52"/><circle cx="709" cy="424" r="40" fill="#6C8573"/><circle cx="729" cy="436" r="28" fill="#6C8573" opacity=".85"/><rect x="488" y="454" width="6" height="20" fill="#7A6A52"/><circle cx="491" cy="445" r="22" fill="#8FA394"/><circle cx="502" cy="452" r="15" fill="#8FA394" opacity=".85"/></svg>