<svg xmlns="http://www.w3.org/2000/svg" viewBox="0 0 800 600" role="img" aria-label="Torre de departamentos color arena"><defs><linearGradient id="s21" x1="0" y1="0" x2="0" y2="1"><stop offset="0" stop-color="#E9EEEF"/><stop offset="1" stop-color="#F7F1E5"/></linearGradient></defs><rect width="800" height="600" fill="url(#s21)"/><circle cx="602" cy="136" r="46" fill="#FBF0D6" opacity=".85"/><rect x="-10" y="243" width="114" height="227" fill="#B9A98C" opacity=".22"/><rect x="166" y="228" width="88" height="242" fill="#B9A98C" opacity=".22"/><rect x="335" y="229" width="83" height="241" fill="#B9A98C" opacity=".22"/><rect x="496" y="304" width="102" height="166" fill="#B9A98C" opacity=".22"/><rect x="675" y="290" width="103" height="180" fill="#B9A98C" opacity=".22"/><rect y="470" width="800" height="130" fill="#D2CBB9"/><rect y="470" width="800" height="10" fill="#000" opacity=".06"/><rect x="215" y="110" width="250" height="360" rx="4" fill="#B9A98C"/><rect x="201" y="98" width="278" height="14" rx="3" fill="#2E4A5C"/><rect x="223.0" y="126.0" width="40.4" height="27.2" rx="3" fill="#F5DDA8"/><rect x="271.4" y="126.0" width="40.4" height="27.2" rx="3" fill="#BCCDD4"/><rect x="319.8" y="126.0" width="40.4" height="27.2" rx="3" fill="#BCCDD4"/><rect x="368.2" y="126.0" width="40.4" height="27.2" rx="3" fill="#BCCDD4"/><rect x="416.6" y="126.0" width="40.4" height="27.2" rx="3" fill="#F5DDA8"/><rect x="223.0" y="161.2" width="40.4" height="27.2" rx="3" fill="#BCCDD4"/><rect x="271.4" y="161.2" width="40.4" height="27.2" rx="3" fill="#BCCDD4"/><rect x="319.8" y="161.2" width="40.4" height="27.2" rx="3" fill="#BCCDD4"/><rect x="368.2" y="161.2" width="40.4" height="27.2" rx="3" fill="#BCCDD4"/><rect x="416.6" y="161.2" width="40.4" height="27.2" rx="3" fill="#F5DDA8"/><rect x="223.0" y="196.5" width="40.4" height="27.2" rx="3" fill="#F5DDA8"/><rect x="271.4" y="196.5" width="40.4" height="27.2" rx="3" fill="#BCCDD4"/><rect x="319.8" y="196.5" width="40.4" height="27.2" rx="3" fill="#BCCDD4"/><rect x="368.2" y="196.5" width="40.4" height="27.2" rx="3" fill="#F5DDA8"/><rect x="416.6" y="196.5" width="40.4" height="27.2" rx="3" fill="#BCCDD4"/><rect x="223.0" y="231.8" width="40.4" height="27.2" rx="3" fill="#F5DDA8"/><rect x="271.4" y="231.8" width="40.4" height="27.2" rx="3" fill="#F5DDA8"/><rect x="319.8" y="231.8" width="40.4" height="27.2" rx="3" fill="#F5DDA8"/><rect x="368.2" y="231.8" width="40.4" height="27.2" rx="3" fill="#BCCDD4"/><rect x="416.6" y="231.8" width="40.4" height="27.2" rx="3" fill="#BCCDD4"/><rect x="223.0" y="267.0" width="40.4" height="27.2" rx="3" fill="#BCCDD4"/><rect x="271.4" y="267.0" width="40.4" height="27.2" rx="3" fill="#BCCDD4"/><rect x="319.8" y="267.0" width="40.4" height="27.2" rx="3" fill="#F5DDA8"/><rect x="368.2" y="267.0" width="40.4" height="27.2" rx="3" fill="#BCCDD4"/><rect x="416.6" y="267.0" width="40.4" height="27.2" rx="3" fill="#BCCDD4"/><rect x="223.0" y="302.2" width="40.4" height="27.2" rx="3" fill="#F5DDA8"/><rect x="271.4" y="302.2" width="40.4" height="27.2" rx="3" fill="#BCCDD4"/><rect x="319.8" y="302.2" width="40.4" height="27.2" rx="3" fill="#BCCDD4"/><rect x="368.2" y="302.2" width="40.4" height="27.2" rx="3" fill="#F5DDA8"/><rect x="416.6" y="302.2" width="40.4" height="27.2" rx="3" fill="#BCCDD4"/><rect x="223.0" y="337.5" width="40.4" height="27.2" rx="3" fill="#F5DDA8"/><rect x="271.4" y="337.5" width="40.4" height="27.2" rx="3" fill="#BCCDD4"/><rect x="319.8" y="337.5" width="40.4" height="27.2" rx="3" fill="#BCCDD4"/><rect x="368.2" y="337.5" width="40.4" height="27.2" rx="3" fill="#BCCDD4"/><rect x="416.6" y="337.5" width="40.4" height="27.2" rx="3" fill="#BCCDD4"/><rect x="223.0" y="372.8" width="40.4" height="27.2" rx="3" fill="#BCCDD4"/><rect x="271.4" y="372.8" width="40.4" height="27.2" rx="3" fill="#F5DDA8"/><rect x="319.8" y="372.8" width="40.4" height="27.2" rx="3" fill="#F5DDA8"/><rect x="368.2" y="372.8" width="40.4" height="27.2" rx="3" fill="#BCCDD4"/><rect x="416.6" y="372.8" width="40.4" height="27.2" rx="3" fill="#F5DDA8"/><rect x="209" y="152" width="262" height="4" fill="#fff" opacity=".35"/><rect x="209" y="188" width="262" height="4" fill="#fff" opacity=".35"/><rect x="209" y="225" width="262" height="4" fill="#fff" opacity=".35"/><rect x="209" y="261" width="262" height="4" fill="#fff" opacity=".35"/><rect x="209" y="297" width="262" height="4" fill="#fff" opacity=".35"/><rect x="209" y="334" width="262" height="4" fill="#fff" opacity=".35"/><rect x="209" y="370" width="262" height="4" fill="#fff" opacity=".35"/><rect x="310.0" y="408" width="60" height="62" rx="4" fill="#2E4A5C"/><rect x="318.0" y="416" width="44" height="54" rx="3" fill="#F5DDA8" opacity=".85"/><rect x="475" y="260" width="130" height="210" fill="#B9A98C" opacity=".78"/><rect x="483.0" y="272.0" width="32.7" height="28.4" rx="3" fill="#BCCDD4"/><rect x="523.7" y="272.0" width="32.7" height="28.4" rx="3" fill="#F5DDA8"/><rect x="564.3" y="272.0" width="32.7" height="28.4" rx="3" fill="#F5DDA8"/><rect x="483.0" y="308.4" width="32.7" height="28.4" rx="3" fill="#BCCDD4"/><rect x="523.7" y="308.4" width="32.7" height="28.4" rx="3" fill="#F5DDA8"/><rect x="564.3" y="308.4" width="32.7" height="28.4" rx="3" fill="#F5DDA8"/><rect x="483.0" y="344.8" width="32.7" height="28.4" rx="3" fill="#BCCDD4"/><rect x="523.7" y="344.8" width="32.7" height="28.4" rx="3" fill="#BCCDD4"/><rect x="564.3" y="344.8" width="32.7" height="28.4" rx="3" fill="#BCCDD4"/><rect x="483.0" y="381.2" width="32.7" height="28.4" rx="3" fill="#F5DDA8"/><rect x="523.7" y="381.2" width="32.7" height="28.4" rx="3" fill="#BCCDD4"/><rect x="564.3" y="381.2" width="32.7" height="28.4" rx="3" fill="#BCCDD4"/><rect x="483.0" y="417.6" width="32.7" height="28.4" rx="3" fill="#BCCDD4"/><rect x="523.7" y="417.6" width="32.7" height="28.4" rx="3" fill="#BCCDD4"/><rect x="564.3" y="417.6" width="32.7" height="28.4" rx="3" fill="#BCCDD4"/><rect x="67" y="445" width="6" height="31" fill="#7A6A52"/><circle cx="70" cy="432" r="34" fill="#7F9784"/><circle cx="87" cy="442" r="24" fill="#7F9784" opacity=".85"/><rect x="684" y="440" width="6" height="36" fill="#7A6A52"/><circle cx="687" cy="424" r="40" fill="#6C8573"/><circle cx="707" cy="436" r="28" fill="#6C8573" opacity=".85"/><rect x="624" y="454" width="6" height="20" fill="#7A6A52"/><circle cx="627" cy="445" r="22" fill="#8FA394"/><circle cx="638" cy="452" r="15" fill="#8FA394" opacity=".85"/></svg>